<svg width="1200" height="630" viewBox="0 0 1200 630" fill="none" xmlns="http://www.w3.org/2000/svg">
  <rect width="1200" height="630" fill="#0E1116"/>
  <rect x="50" y="50" width="1100" height="530" rx="8" fill="#11161d" stroke="#1C2430" stroke-width="2"/>
  
  <!-- Logo/Icon -->
  <rect x="100" y="100" width="80" height="80" rx="8" fill="#4DA3FF"/>
  <path d="M120 160V130L140 120L160 130V160H150V140H130V160H120Z" fill="white"/>
  <rect x="135" y="145" width="10" height="15" fill="#4DA3FF"/>
  
  <!-- Title -->
  <text x="220" y="140" font-family="Inter, sans-serif" font-size="48" font-weight="600" fill="#E6EAF2">
    Construction Consulting Services
  </text>
  
  <!-- Subtitle -->
  <text x="220" y="180" font-family="Inter, sans-serif" font-size="24" font-weight="400" fill="#9AA3B2">
    Professional expertise in Laos and the region
  </text>
  
  <!-- Features -->
  <text x="100" y="250" font-family="Inter, sans-serif" font-size="20" font-weight="500" fill="#E6EAF2">
    ✓ 15+ Years Experience
  </text>
  <text x="100" y="290" font-family="Inter, sans-serif" font-size="20" font-weight="500" fill="#E6EAF2">
    ✓ 200+ Projects Completed
  </text>
  <text x="100" y="330" font-family="Inter, sans-serif" font-size="20" font-weight="500" fill="#E6EAF2">
    ✓ Expert Technical Guidance
  </text>
  
  <text x="400" y="250" font-family="Inter, sans-serif" font-size="20" font-weight="500" fill="#E6EAF2">
    ✓ Quality Assurance
  </text>
  <text x="400" y="290" font-family="Inter, sans-serif" font-size="20" font-weight="500" fill="#E6EAF2">
    ✓ Risk Assessment
  </text>
  <text x="400" y="330" font-family="Inter, sans-serif" font-size="20" font-weight="500" fill="#E6EAF2">
    ✓ Project Management
  </text>
  
  <!-- Building illustration -->
  <g transform="translate(700, 200)">
    <rect x="0" y="100" width="400" height="200" fill="#1C2430" stroke="#4DA3FF" stroke-width="2"/>
    <rect x="20" y="120" width="60" height="80" fill="#4DA3FF" opacity="0.3"/>
    <rect x="100" y="120" width="60" height="80" fill="#4DA3FF" opacity="0.5"/>
    <rect x="180" y="120" width="60" height="80" fill="#4DA3FF" opacity="0.3"/>
    <rect x="260" y="120" width="60" height="80" fill="#4DA3FF" opacity="0.7"/>
    <rect x="340" y="120" width="40" height="80" fill="#4DA3FF" opacity="0.4"/>
    
    <!-- Crane -->
    <line x1="350" y1="50" x2="350" y2="200" stroke="#4DA3FF" stroke-width="3"/>
    <line x1="320" y1="70" x2="380" y2="70" stroke="#4DA3FF" stroke-width="2"/>
    <line x1="350" y1="70" x2="370" y2="90" stroke="#4DA3FF" stroke-width="2"/>
  </g>
  
  <!-- Website URL -->
  <text x="100" y="550" font-family="Inter, sans-serif" font-size="18" font-weight="400" fill="#9AA3B2">
    example.com
  </text>
</svg>